<?xml version="1.0" encoding="utf-8"?>
<!-- Generator: Adobe Illustrator 16.0.0, SVG Export Plug-In . SVG Version: 6.00 Build 0)  -->
<!DOCTYPE svg PUBLIC "-//W3C//DTD SVG 1.1//EN" "http://www.w3.org/Graphics/SVG/1.1/DTD/svg11.dtd">
<svg version="1.1" id="Layer_1" xmlns="http://www.w3.org/2000/svg" xmlns:xlink="http://www.w3.org/1999/xlink" x="0px" y="0px"
	 width="32px" height="32px" viewBox="0 0 32 32" enable-background="new 0 0 32 32" xml:space="preserve">
<path fill-rule="evenodd" clip-rule="evenodd" d="M16.001,32C8.268,32,1.999,25.73,1.999,18c0-5.737,3.456-10.664,8.397-12.826
	l3.052,3.167C9.162,9.471,6.001,13.36,6.001,18c0,5.521,4.476,10,10,10c5.522,0,9.998-4.479,9.998-10
	c0-4.64-3.161-8.529-7.445-9.659l3.05-3.167c4.941,2.164,8.397,7.089,8.397,12.826C30.001,25.73,23.732,32,16.001,32L16.001,32z
	 M10.506,3l2-3h6.99l1.998,3l-5.493,5.493L10.506,3L10.506,3z M18.5,1.998h-5.001l-0.62,0.848l3.122,3.148l3.12-3.148L18.5,1.998
	L18.5,1.998z"/>
</svg>
